<svg id="icon" xmlns="http://www.w3.org/2000/svg" viewBox="0 0 512 512"><defs><style>.cls-1{fill:#fff;}.cls-2{fill:#abe5ff;}.cls-3{fill:#ddd;}.cls-4{fill:#d7f5ff;}.cls-5{fill:#7cc8dd;}.cls-6{fill:#4d4d4d;}</style></defs><title>payment website</title><rect class="cls-1" x="28.03" y="90.25" width="455.94" height="331.49" rx="29.24"/><path class="cls-2" d="M454.73,90.25H57.27A29.24,29.24,0,0,0,28,119.49v36.12H484V119.49A29.24,29.24,0,0,0,454.73,90.25Z"/><rect class="cls-2" x="258.5" y="224.78" width="60.53" height="32.65"/><rect class="cls-2" x="357.81" y="224.78" width="60.53" height="32.65"/><path class="cls-3" d="M454.73,422A29.24,29.24,0,0,0,484,392.75V188.57h-.86a27.59,27.59,0,0,0-27.59,27.59V364.27a27.59,27.59,0,0,1-27.59,27.59H106.52a27.59,27.59,0,0,0-27.59,27.59V422Z"/><path class="cls-4" d="M143.33,117.22a16.62,16.62,0,0,0,16.61-16.62V90.25H57.27a29.24,29.24,0,0,0-29.13,27Z"/><path class="cls-5" d="M454.73,90.25h-6.17c6.92,5.43,15.13,15,15.13,30v5.19A11.66,11.66,0,0,1,452,137.09H234.75a16.52,16.52,0,0,0-16.52,16.52v2H484V119.49A29.24,29.24,0,0,0,454.73,90.25Z"/><path class="cls-6" d="M454.73,84.54H57.27a35,35,0,0,0-34.95,34.95v273a35,35,0,0,0,35,34.95H454.73a35,35,0,0,0,34.95-34.95V181.15a5.71,5.71,0,1,0-11.42,0V392.51A23.56,23.56,0,0,1,454.73,416H57.27a23.56,23.56,0,0,1-23.53-23.53v-273A23.56,23.56,0,0,1,57.27,96H454.73a23.56,23.56,0,0,1,23.53,23.53V149.9H54.09a5.71,5.71,0,0,0,0,11.42H484a5.71,5.71,0,0,0,5.71-5.71V119.49A35,35,0,0,0,454.73,84.54Z"/><path class="cls-6" d="M431.25,128.2a5.63,5.63,0,0,0,1.08.33,5.8,5.8,0,0,0,1.11.11,6,6,0,0,0,1.11-.11,5.76,5.76,0,0,0,1.07-.33,5.27,5.27,0,0,0,1-.53,5.69,5.69,0,0,0,.87-8.77,5.21,5.21,0,0,0-1.86-1.23,5.53,5.53,0,0,0-1.07-.33,5.7,5.7,0,0,0-6.82,5.59,5.6,5.6,0,0,0,2.54,4.74A4.9,4.9,0,0,0,431.25,128.2Z"/><path class="cls-6" d="M401.73,128.53a5.53,5.53,0,0,0,1.07-.33,6.08,6.08,0,0,0,1-.51,5.65,5.65,0,0,0,.87-.72,5.78,5.78,0,0,0,1.67-4,5.22,5.22,0,0,0-.11-1.11,5.53,5.53,0,0,0-.33-1.07,6.63,6.63,0,0,0-.51-1,7.45,7.45,0,0,0-.72-.86,5.13,5.13,0,0,0-.87-.72,6.08,6.08,0,0,0-1-.51,5.53,5.53,0,0,0-1.07-.33,5.24,5.24,0,0,0-2.23,0,5.53,5.53,0,0,0-1.07.33,5.06,5.06,0,0,0-1.85,1.23,5.71,5.71,0,0,0,4,9.74A6.07,6.07,0,0,0,401.73,128.53Z"/><path class="cls-6" d="M365.61,128.2a5.53,5.53,0,0,0,1.07.33,6,6,0,0,0,1.11.11,5.71,5.71,0,0,0,4-9.74,6.05,6.05,0,0,0-.87-.72,6.63,6.63,0,0,0-1-.51,4.42,4.42,0,0,0-1.07-.33,5.19,5.19,0,0,0-2.22,0,4.42,4.42,0,0,0-1.07.33,6.18,6.18,0,0,0-1,.51,6.65,6.65,0,0,0-.87.72,5.72,5.72,0,0,0-1.67,4,5.78,5.78,0,0,0,1.67,4,7.56,7.56,0,0,0,.87.72A6.18,6.18,0,0,0,365.61,128.2Z"/><path class="cls-6" d="M144.79,217.64a5.71,5.71,0,0,0-5.71,5.71v6.17a21.12,21.12,0,0,0,1.25,42.21h8.92a9.72,9.72,0,1,1,0,19.44H132a5.71,5.71,0,0,0,0,11.42h7.13v6.11a5.71,5.71,0,0,0,11.41,0v-6.17a21.13,21.13,0,0,0-1.24-42.22h-8.92a9.72,9.72,0,1,1,0-19.43h17.3a5.71,5.71,0,1,0,0-11.42h-7.14v-6.11A5.71,5.71,0,0,0,144.79,217.64Z"/><path class="cls-6" d="M252.8,317.06a5.71,5.71,0,0,0,5.7,5.71h56.58a5.71,5.71,0,1,0,0-11.42H258.5A5.71,5.71,0,0,0,252.8,317.06Z"/><path class="cls-6" d="M346.25,313.9a4.6,4.6,0,0,0-.7-.87,6.05,6.05,0,0,0-.87-.72,6.13,6.13,0,0,0-1-.52,5.06,5.06,0,0,0-1.07-.32,5.75,5.75,0,0,0-5.16,1.56,5.67,5.67,0,0,0-1.67,4,4.69,4.69,0,0,0,.12,1.12,6.43,6.43,0,0,0,.31,1.07,7.11,7.11,0,0,0,.53,1,6,6,0,0,0,.71.86,5.7,5.7,0,0,0,8.08,0,5.94,5.94,0,0,0,1.23-1.84,6.55,6.55,0,0,0,.33-1.07,6,6,0,0,0,.11-1.12,6.07,6.07,0,0,0-.11-1.12,5.66,5.66,0,0,0-.33-1.06A4.41,4.41,0,0,0,346.25,313.9Z"/><path class="cls-6" d="M417.12,315.38a5.7,5.7,0,0,0-3.73-7.16l-34.57-10.88a5.7,5.7,0,0,0-7.15,7.16l10.87,34.57a5.71,5.71,0,0,0,9.48,2.32l7.81-7.81,6.48,6.48a5.71,5.71,0,0,0,8.07-8.07l-10.51-10.52a5.72,5.72,0,0,0-8.08,0l-5.18,5.19-4.77-15.14L410,319.11A5.71,5.71,0,0,0,417.12,315.38Z"/><path class="cls-6" d="M258.5,219.07a5.71,5.71,0,0,0-5.7,5.71v32.65a5.71,5.71,0,0,0,5.7,5.71H319a5.71,5.71,0,0,0,5.71-5.71V224.78a5.71,5.71,0,0,0-5.71-5.71Zm54.82,32.65H264.21V230.49h49.11Z"/><path class="cls-6" d="M424.05,257.43V224.78a5.71,5.71,0,0,0-5.71-5.71H357.81a5.71,5.71,0,0,0-5.71,5.71v32.65a5.71,5.71,0,0,0,5.71,5.71h60.53A5.71,5.71,0,0,0,424.05,257.43Zm-11.42-5.71H363.52V230.49h49.11Z"/></svg>